<svg width="566" height="498" viewBox="0 0 566 498" fill="none" xmlns="http://www.w3.org/2000/svg">
<path d="M236.94 191.26H41.5701C39.2414 191.26 37.008 190.318 35.3613 188.642C33.7146 186.966 32.7895 184.693 32.7895 182.323V49.0596C32.7895 46.6896 33.7146 44.4166 35.3613 42.7408C37.008 41.0649 39.2414 40.1234 41.5701 40.1234H236.94C239.269 40.1234 241.502 41.0649 243.149 42.7408C244.795 44.4166 245.72 46.6896 245.72 49.0596V182.374C245.707 184.736 244.776 186.996 243.131 188.66C241.486 190.325 239.26 191.26 236.94 191.26ZM41.5701 42.7277C39.9067 42.7277 38.3115 43.4002 37.1352 44.5972C35.959 45.7942 35.2982 47.4178 35.2982 49.1106V182.374C35.2982 184.067 35.959 185.691 37.1352 186.888C38.3115 188.085 39.9067 188.757 41.5701 188.757H236.94C238.603 188.757 240.199 188.085 241.375 186.888C242.551 185.691 243.212 184.067 243.212 182.374V49.0596C243.212 47.3667 242.551 45.7432 241.375 44.5461C240.199 43.3491 238.603 42.6766 236.94 42.6766L41.5701 42.7277Z" fill="#0942B2"/>
<path d="M48.8957 59.7957C51.5698 59.7957 53.7376 57.5895 53.7376 54.8681C53.7376 52.1466 51.5698 49.9404 48.8957 49.9404C46.2216 49.9404 44.0538 52.1466 44.0538 54.8681C44.0538 57.5895 46.2216 59.7957 48.8957 59.7957Z" fill="#0942B2"/>
<path d="M68.9282 59.7957C71.6023 59.7957 73.7701 57.5895 73.7701 54.8681C73.7701 52.1466 71.6023 49.9404 68.9282 49.9404C66.2541 49.9404 64.0863 52.1466 64.0863 54.8681C64.0863 57.5895 66.2541 59.7957 68.9282 59.7957Z" fill="#0942B2"/>
<path d="M88.9732 59.7957C91.6473 59.7957 93.8151 57.5895 93.8151 54.8681C93.8151 52.1466 91.6473 49.9404 88.9732 49.9404C86.2991 49.9404 84.1313 52.1466 84.1313 54.8681C84.1313 57.5895 86.2991 59.7957 88.9732 59.7957Z" fill="#0942B2"/>
<path d="M557.183 39.0511H369.327C365.198 39.0511 361.851 42.4575 361.851 46.6596V227.464C361.851 231.666 365.198 235.072 369.327 235.072H557.183C561.312 235.072 564.659 231.666 564.659 227.464V46.6596C564.659 42.4575 561.312 39.0511 557.183 39.0511Z" fill="#0942B2"/>
<path d="M378.534 54.7277C380.82 54.7277 382.674 52.8415 382.674 50.5149C382.674 48.1882 380.82 46.3021 378.534 46.3021C376.248 46.3021 374.395 48.1882 374.395 50.5149C374.395 52.8415 376.248 54.7277 378.534 54.7277Z" fill="white"/>
<path d="M395.657 54.7277C397.943 54.7277 399.796 52.8415 399.796 50.5149C399.796 48.1882 397.943 46.3021 395.657 46.3021C393.37 46.3021 391.517 48.1882 391.517 50.5149C391.517 52.8415 393.37 54.7277 395.657 54.7277Z" fill="white"/>
<path d="M412.766 54.7277C415.052 54.7277 416.906 52.8415 416.906 50.5149C416.906 48.1882 415.052 46.3021 412.766 46.3021C410.48 46.3021 408.627 48.1882 408.627 50.5149C408.627 52.8415 410.48 54.7277 412.766 54.7277Z" fill="white"/>
<path d="M108.981 72.3192H47.5912C46.649 72.3192 45.8853 73.0965 45.8853 74.0553C45.8853 75.0142 46.649 75.7915 47.5912 75.7915H108.981C109.923 75.7915 110.687 75.0142 110.687 74.0553C110.687 73.0965 109.923 72.3192 108.981 72.3192Z" fill="#0942B2"/>
<path d="M90.8673 91.6086H65.7922C64.8501 91.6086 64.0863 92.3859 64.0863 93.3447C64.0863 94.3036 64.8501 95.0809 65.7922 95.0809H90.8673C91.8095 95.0809 92.5733 94.3036 92.5733 93.3447C92.5733 92.3859 91.8095 91.6086 90.8673 91.6086Z" fill="#0942B2"/>
<path d="M137.555 110.898H65.7922C64.8501 110.898 64.0863 111.675 64.0863 112.634C64.0863 113.593 64.8501 114.37 65.7922 114.37H137.555C138.497 114.37 139.261 113.593 139.261 112.634C139.261 111.675 138.497 110.898 137.555 110.898Z" fill="#0942B2"/>
<path d="M196.072 149.489H65.7922C64.8501 149.489 64.0863 150.267 64.0863 151.226C64.0863 152.184 64.8501 152.962 65.7922 152.962H196.072C197.014 152.962 197.778 152.184 197.778 151.226C197.778 150.267 197.014 149.489 196.072 149.489Z" fill="#0942B2"/>
<path d="M112.305 168.779H65.7922C64.8501 168.779 64.0863 169.556 64.0863 170.515C64.0863 171.474 64.8501 172.251 65.7922 172.251H112.305C113.247 172.251 114.011 171.474 114.011 170.515C114.011 169.556 113.247 168.779 112.305 168.779Z" fill="#0942B2"/>
<path d="M153.486 72.3192H118.301C117.358 72.3192 116.595 73.0965 116.595 74.0553C116.595 75.0142 117.358 75.7915 118.301 75.7915H153.486C154.428 75.7915 155.192 75.0142 155.192 74.0553C155.192 73.0965 154.428 72.3192 153.486 72.3192Z" fill="#0942B2"/>
<path d="M231.057 91.6086H103.95C103.008 91.6086 102.245 92.3859 102.245 93.3447C102.245 94.3036 103.008 95.0809 103.95 95.0809H231.057C231.999 95.0809 232.763 94.3036 232.763 93.3447C232.763 92.3859 231.999 91.6086 231.057 91.6086Z" fill="#0942B2"/>
<path d="M171.674 110.898H150.124C149.182 110.898 148.418 111.675 148.418 112.634C148.418 113.593 149.182 114.37 150.124 114.37H171.674C172.617 114.37 173.38 113.593 173.38 112.634C173.38 111.675 172.617 110.898 171.674 110.898Z" fill="#0942B2"/>
<path d="M143.188 168.779H125.162C124.22 168.779 123.456 169.556 123.456 170.515C123.456 171.474 124.22 172.251 125.162 172.251H143.188C144.13 172.251 144.894 171.474 144.894 170.515C144.894 169.556 144.13 168.779 143.188 168.779Z" fill="#0942B2"/>
<path d="M186.439 72.3192H166.343C165.401 72.3192 164.637 73.0965 164.637 74.0553C164.637 75.0142 165.401 75.7915 166.343 75.7915H186.439C187.381 75.7915 188.144 75.0142 188.144 74.0553C188.144 73.0965 187.381 72.3192 186.439 72.3192Z" fill="#0942B2"/>
<path d="M108.981 130.864H47.5912C46.649 130.864 45.8853 131.641 45.8853 132.6C45.8853 133.559 46.649 134.336 47.5912 134.336H108.981C109.923 134.336 110.687 133.559 110.687 132.6C110.687 131.641 109.923 130.864 108.981 130.864Z" fill="#0942B2"/>
<path d="M153.486 130.864H118.301C117.358 130.864 116.595 131.641 116.595 132.6C116.595 133.559 117.358 134.336 118.301 134.336H153.486C154.428 134.336 155.192 133.559 155.192 132.6C155.192 131.641 154.428 130.864 153.486 130.864Z" fill="#0942B2"/>
<path d="M186.439 130.864H166.343C165.401 130.864 164.637 131.641 164.637 132.6C164.637 133.559 165.401 134.336 166.343 134.336H186.439C187.381 134.336 188.144 133.559 188.144 132.6C188.144 131.641 187.381 130.864 186.439 130.864Z" fill="#0942B2"/>
<path d="M231.057 110.898H184.544C183.602 110.898 182.838 111.675 182.838 112.634C182.838 113.593 183.602 114.37 184.544 114.37H231.057C231.999 114.37 232.763 113.593 232.763 112.634C232.763 111.675 231.999 110.898 231.057 110.898Z" fill="#0942B2"/>
<path d="M231.057 149.489H207.738C206.796 149.489 206.032 150.267 206.032 151.226C206.032 152.184 206.796 152.962 207.738 152.962H231.057C231.999 152.962 232.763 152.184 232.763 151.226C232.763 150.267 231.999 149.489 231.057 149.489Z" fill="#0942B2"/>
<path d="M231.057 168.779H156.898C155.956 168.779 155.192 169.556 155.192 170.515C155.192 171.474 155.956 172.251 156.898 172.251H231.057C231.999 172.251 232.763 171.474 232.763 170.515C232.763 169.556 231.999 168.779 231.057 168.779Z" fill="#0942B2"/>
<path d="M284.619 0H204.953C200.997 0 197.791 3.26356 197.791 7.28937V66.766C197.791 70.7918 200.997 74.0553 204.953 74.0553H284.619C288.575 74.0553 291.781 70.7918 291.781 66.766V7.28937C291.781 3.26356 288.575 0 284.619 0Z" fill="#191C1E"/>
<path d="M233.829 66.2042C231.316 66.2043 228.906 65.1892 227.128 63.382C225.35 61.5749 224.349 59.1234 224.346 56.566V44.5404C224.344 43.9201 224.165 43.3136 223.831 42.7947C223.497 42.2757 223.022 41.8666 222.464 41.617L217.936 39.6383C217.593 39.493 217.3 39.2476 217.093 38.9329C216.887 38.6183 216.777 38.2485 216.777 37.8702C216.777 37.4919 216.887 37.1221 217.093 36.8075C217.3 36.4928 217.593 36.2474 217.936 36.1021L222.013 34.4808C222.497 34.2968 222.914 33.965 223.205 33.5308C223.497 33.0966 223.65 32.5813 223.643 32.0553V19.1234C223.647 16.3764 224.721 13.743 226.631 11.8018C228.541 9.86057 231.13 8.7702 233.829 8.7702C234.328 8.7702 234.807 8.97195 235.159 9.33106C235.512 9.69017 235.711 10.1772 235.711 10.6851C235.711 11.193 235.512 11.68 235.159 12.0391C234.807 12.3982 234.328 12.6 233.829 12.6C232.129 12.6 230.499 13.2873 229.297 14.5106C228.094 15.734 227.419 17.3933 227.419 19.1234V31.9787C227.426 33.2432 227.064 34.4813 226.378 35.5359C225.692 36.5905 224.714 37.414 223.568 37.9021L223.957 38.0808C225.183 38.6205 226.228 39.5112 226.965 40.6445C227.702 41.7778 228.1 43.1047 228.109 44.4638V56.4894C228.112 58.031 228.716 59.5084 229.789 60.5974C230.861 61.6863 232.314 62.2979 233.829 62.2979C234.328 62.2979 234.807 62.4996 235.159 62.8587C235.512 63.2178 235.711 63.7049 235.711 64.2128C235.711 64.7206 235.512 65.2077 235.159 65.5668C234.807 65.9259 234.328 66.1277 233.829 66.1277V66.2042ZM254.765 66.2042C254.266 66.2042 253.787 66.0025 253.434 65.6434C253.081 65.2843 252.883 64.7972 252.883 64.2894C252.883 63.7815 253.081 63.2944 253.434 62.9353C253.787 62.5762 254.266 62.3745 254.765 62.3745C256.279 62.3745 257.732 61.7629 258.805 60.674C259.877 59.585 260.481 58.1076 260.485 56.566V44.5404C260.494 43.1813 260.892 41.8544 261.629 40.7211C262.366 39.5878 263.411 38.6971 264.637 38.1574L265.025 37.9787C263.867 37.4857 262.881 36.6503 262.195 35.5807C261.508 34.511 261.153 33.2562 261.175 31.9787V19.1234C261.175 17.3933 260.499 15.734 259.297 14.5106C258.095 13.2873 256.465 12.6 254.765 12.6C254.266 12.6 253.787 12.3982 253.434 12.0391C253.081 11.68 252.883 11.193 252.883 10.6851C252.883 10.1772 253.081 9.69017 253.434 9.33106C253.787 8.97195 254.266 8.7702 254.765 8.7702C257.462 8.77358 260.047 9.86545 261.954 11.8063C263.861 13.7472 264.934 16.3786 264.938 19.1234V31.9787C264.931 32.5047 265.084 33.02 265.376 33.4542C265.668 33.8884 266.084 34.2202 266.568 34.4042L270.645 36.0255C271.015 36.1504 271.338 36.389 271.569 36.7085C271.8 37.0281 271.927 37.4127 271.934 37.8093C271.941 38.2059 271.827 38.5949 271.607 38.9225C271.387 39.2501 271.073 39.5002 270.708 39.6383L266.129 41.6681C265.571 41.9177 265.096 42.3268 264.762 42.8457C264.428 43.3647 264.25 43.9711 264.248 44.5915V56.617C264.231 59.1656 263.225 61.604 261.448 63.4001C259.671 65.1963 257.269 66.2043 254.765 66.2042Z" fill="#0942B2"/>
<path d="M442.646 172.596C441.89 172.598 441.159 172.321 440.588 171.817L410.697 145.596C410.082 145.058 409.695 144.3 409.618 143.478C409.541 142.657 409.779 141.838 410.283 141.192L432.861 112.238C433.377 111.576 434.13 111.15 434.955 111.053C435.779 110.956 436.608 111.197 437.258 111.721C437.908 112.246 438.327 113.012 438.423 113.851C438.518 114.691 438.282 115.534 437.766 116.196L417.094 142.711L444.69 166.966C445.183 167.389 445.535 167.957 445.699 168.591C445.864 169.225 445.832 169.896 445.608 170.511C445.385 171.126 444.981 171.656 444.451 172.029C443.92 172.402 443.29 172.6 442.646 172.596ZM489.522 172.596C488.882 172.597 488.257 172.398 487.731 172.028C487.205 171.657 486.804 171.131 486.58 170.521C486.356 169.911 486.321 169.246 486.479 168.615C486.637 167.984 486.981 167.418 487.465 166.992L515.061 142.736L494.389 116.17C494.118 115.843 493.915 115.464 493.791 115.056C493.667 114.648 493.625 114.218 493.668 113.793C493.71 113.368 493.836 112.956 494.038 112.581C494.239 112.206 494.513 111.876 494.842 111.611C495.172 111.346 495.55 111.151 495.955 111.038C496.36 110.924 496.783 110.895 497.199 110.951C497.616 111.007 498.017 111.147 498.378 111.364C498.74 111.581 499.056 111.87 499.306 112.213L521.885 141.166C522.387 141.812 522.625 142.63 522.551 143.45C522.476 144.27 522.094 145.029 521.483 145.57L491.604 171.843C491.025 172.346 490.283 172.614 489.522 172.596ZM459.617 174.23C459.136 174.229 458.662 174.116 458.231 173.899C457.8 173.681 457.424 173.366 457.132 172.978C456.84 172.589 456.639 172.137 456.546 171.657C456.453 171.177 456.469 170.681 456.594 170.209L472.324 110.732C472.542 109.908 473.073 109.205 473.8 108.779C474.527 108.353 475.39 108.238 476.2 108.46C477.01 108.681 477.701 109.222 478.119 109.961C478.538 110.701 478.651 111.58 478.433 112.404L462.703 171.881C462.517 172.565 462.113 173.167 461.555 173.592C460.996 174.017 460.315 174.241 459.617 174.23Z" fill="white"/>
<path d="M352.192 211.404L286.839 231.638C278.478 234.228 271.03 239.22 265.389 246.014C259.748 252.807 256.155 261.114 255.041 269.936L238.734 401.132L187.718 479.426L226.491 486.868L290.577 429.217C301.398 374.46 312.215 319.706 323.028 264.957L352.192 211.404Z" fill="#DB9171"/>
<path d="M371.851 223.735L341.085 226.058L336.747 166.569L367.512 164.246L371.851 223.735Z" fill="#DB9171"/>
<path d="M347.25 107.898C341.835 107.927 336.499 109.22 331.651 111.677C326.804 114.133 322.575 117.689 319.29 122.07C316.004 126.45 313.749 131.54 312.699 136.946C311.649 142.352 311.831 147.932 313.231 153.255L319.127 180.664C321.284 190.685 329.626 198.37 338.745 199.098C340.694 199.187 342.647 199.089 344.578 198.804C358.013 196.66 365.539 182.426 369.779 174.472C370.494 173.119 371.271 171.523 372.062 169.723C377.123 164.722 380.598 158.294 382.042 151.266C383.486 144.239 382.833 136.932 380.165 130.286C377.498 123.639 372.939 117.956 367.073 113.967C361.208 109.977 354.305 107.864 347.25 107.898Z" fill="#DB9171"/>
<path d="M335.986 176.604C335.675 176.604 335.367 176.534 335.086 176.399C334.804 176.265 334.555 176.068 334.356 175.825C334.157 175.581 334.014 175.296 333.936 174.989C333.857 174.683 333.846 174.362 333.903 174.051L336.412 162.14C336.448 161.976 336.546 161.833 336.684 161.74C336.822 161.647 336.99 161.612 337.152 161.643C337.233 161.659 337.31 161.692 337.378 161.739C337.446 161.786 337.505 161.846 337.55 161.916C337.596 161.986 337.627 162.064 337.643 162.147C337.658 162.229 337.658 162.314 337.641 162.396L335.133 174.319C335.104 174.449 335.105 174.584 335.135 174.714C335.166 174.843 335.225 174.964 335.309 175.066C335.392 175.169 335.498 175.25 335.618 175.304C335.737 175.359 335.867 175.384 335.998 175.379L340.263 175.302C340.427 175.302 340.585 175.368 340.702 175.485C340.82 175.602 340.887 175.761 340.89 175.928C340.894 176.012 340.88 176.096 340.851 176.175C340.822 176.254 340.777 176.326 340.719 176.387C340.662 176.447 340.593 176.496 340.517 176.529C340.441 176.562 340.359 176.579 340.276 176.579L335.986 176.604ZM326.227 157.698C325.631 157.7 325.05 157.883 324.556 158.221C324.063 158.56 323.679 159.04 323.453 159.601C323.228 160.162 323.17 160.778 323.289 161.372C323.408 161.966 323.697 162.51 324.119 162.937C324.542 163.364 325.08 163.653 325.664 163.769C326.249 163.885 326.854 163.822 327.403 163.587C327.952 163.353 328.421 162.958 328.749 162.453C329.078 161.948 329.252 161.355 329.25 160.749C329.243 159.937 328.922 159.161 328.355 158.59C327.789 158.018 327.024 157.698 326.227 157.698ZM349.069 157.583C348.473 157.586 347.892 157.768 347.398 158.106C346.905 158.445 346.521 158.925 346.295 159.486C346.07 160.047 346.013 160.663 346.131 161.257C346.25 161.851 346.539 162.396 346.962 162.822C347.384 163.249 347.922 163.538 348.506 163.654C349.091 163.77 349.696 163.707 350.245 163.472C350.794 163.238 351.263 162.844 351.592 162.338C351.92 161.833 352.094 161.24 352.092 160.634C352.085 159.823 351.764 159.047 351.198 158.475C350.631 157.904 349.866 157.583 349.069 157.583ZM356.495 149.604C353.033 146.298 347.84 147.638 346.974 147.855C346.109 148.072 343.75 148.698 343.637 149.911C343.637 150.6 344.327 151.187 344.352 151.187C345.958 152.464 348.116 150.051 351.402 150.077C355.24 150.077 357.674 153.319 358.238 152.732C358.577 152.349 357.674 150.702 356.495 149.604ZM327.983 147.83C327.117 147.6 321.924 146.247 318.449 149.553C317.27 150.677 316.367 152.285 316.706 152.681C317.045 153.077 319.704 150.064 323.542 150.051C326.841 150.051 328.986 152.4 330.592 151.187C330.794 151.039 330.963 150.849 331.086 150.628C331.21 150.408 331.285 150.163 331.307 149.911C331.206 148.685 328.71 148.021 327.983 147.83Z" fill="#262246"/>
<path d="M339.561 200.068C339.394 200.068 339.235 200.001 339.117 199.881C339 199.761 338.933 199.599 338.933 199.43C338.933 199.261 339 199.098 339.117 198.978C339.235 198.859 339.394 198.792 339.561 198.792C343.082 198.899 346.575 198.117 349.727 196.516C352.879 194.914 355.592 192.542 357.624 189.613C357.671 189.544 357.732 189.485 357.802 189.44C357.872 189.395 357.95 189.364 358.031 189.35C358.113 189.336 358.197 189.338 358.277 189.357C358.358 189.376 358.434 189.411 358.502 189.46C358.634 189.561 358.722 189.711 358.748 189.878C358.774 190.045 358.735 190.215 358.64 190.353C356.493 193.448 353.627 195.954 350.299 197.649C346.97 199.344 343.281 200.175 339.561 200.068Z" fill="#68003C"/>
<path d="M365.752 212.898L434.517 222.728C444.536 224.158 454.067 228.031 462.298 234.017C470.53 240.003 477.218 247.924 481.795 257.106C508.128 309.872 534.47 362.681 560.821 415.532L503.721 434.872C388.632 246.447 417.809 293.247 365.752 212.898Z" fill="#DB9171"/>
<path d="M276.302 242.043L352.192 211.404L451.915 230.975L441.88 489.702H277.971C277.419 407.14 276.863 324.587 276.302 242.043Z" fill="#191C1E"/>
<path d="M335.672 424.174L546.408 389.272C550.522 395.221 574.456 430.545 561.887 450.549C552.981 464.719 530.063 464.362 515.889 464.17C465.864 463.481 410.985 463.213 346.547 462.894L335.672 424.174Z" fill="#DB9171"/>
<path d="M352.192 209.809L437.716 221.055C448.086 222.414 457.999 226.227 466.661 232.189C475.322 238.15 482.49 246.094 487.59 255.383L548.917 367.136L463.268 394.366L416.793 276.919L352.192 209.809Z" fill="#191C1E"/>
<path d="M250.713 272.055L219.228 385.672L308.289 399.077L334.179 244.366L353.861 209.809L295.733 226.315C285.006 229.373 275.231 235.186 267.348 243.196C259.464 251.206 253.736 261.144 250.713 272.055Z" fill="#191C1E"/>
<path d="M340.025 213.753C340.025 213.753 340.464 225.026 353.422 225.983C366.379 226.94 370.857 212.26 370.857 212.26L364.924 203.426L349.458 205.123L341.706 209.272L340.025 213.753Z" fill="#DB9171"/>
<path d="M362.779 142.774C362.779 142.774 352.13 142.034 350.976 129.268C350.976 129.268 337.968 122.247 334.493 130.545C331.018 138.843 323.969 139.481 323.969 139.481C323.969 139.481 318.148 159 303.409 152.745C288.67 146.489 276.44 117.14 294.629 99.2681C312.817 81.3957 336.613 94.1617 336.613 94.1617C336.613 94.1617 347.363 81.1787 358.314 89.7447C358.314 89.7447 387.164 86.183 392.47 114.587C397.776 142.991 369.076 187.353 369.076 187.353C365.401 160.519 366.856 170.745 362.779 142.774Z" fill="#68003C"/>
<path d="M373.667 154.992C369.766 152.949 364.711 154.992 362.378 159.677C360.045 164.362 361.261 169.736 365.15 171.779C369.039 173.821 374.106 171.779 376.439 167.094C378.773 162.409 377.556 157.085 373.667 154.992Z" fill="#DB9171"/>
<path d="M367.308 167.911C367.912 167.713 368.438 167.325 368.812 166.803C369.186 166.281 369.387 165.652 369.387 165.006C369.387 164.361 369.186 163.732 368.812 163.21C368.438 162.688 367.912 162.3 367.308 162.102C367.225 162.089 367.146 162.059 367.075 162.014C367.004 161.97 366.942 161.912 366.893 161.843C366.845 161.774 366.809 161.696 366.79 161.614C366.771 161.531 366.768 161.446 366.781 161.362C366.794 161.278 366.823 161.198 366.867 161.125C366.911 161.053 366.968 160.99 367.035 160.94C367.103 160.89 367.179 160.855 367.261 160.835C367.342 160.815 367.426 160.812 367.508 160.826H373.467C373.633 160.826 373.792 160.893 373.91 161.012C374.028 161.132 374.094 161.295 374.094 161.464C374.094 161.633 374.028 161.795 373.91 161.915C373.792 162.035 373.633 162.102 373.467 162.102H369.553C370.031 162.632 370.37 163.275 370.54 163.973C370.71 164.671 370.705 165.401 370.525 166.096C370.345 166.791 369.996 167.429 369.511 167.952C369.026 168.474 368.419 168.864 367.747 169.085C367.602 169.113 367.452 169.088 367.324 169.015C367.196 168.942 367.097 168.825 367.044 168.685C366.992 168.545 366.99 168.391 367.038 168.249C367.086 168.108 367.181 167.988 367.308 167.911Z" fill="#262246"/>
<path d="M447.074 356.936C446.907 356.936 446.748 356.869 446.63 356.749C446.512 356.63 446.446 356.467 446.446 356.298V271.826C446.45 271.657 446.517 271.497 446.634 271.378C446.751 271.259 446.908 271.191 447.074 271.187C447.24 271.187 447.399 271.255 447.517 271.374C447.635 271.494 447.701 271.656 447.701 271.826V356.298C447.701 356.467 447.635 356.63 447.517 356.749C447.399 356.869 447.24 356.936 447.074 356.936Z" fill="#68003C"/>
<path d="M350.399 422.043L286.112 425.017C279.497 435.945 272.89 446.868 266.292 457.787C265.388 459.34 265.114 461.19 265.527 462.945C265.94 464.7 267.008 466.222 268.505 467.19C270.002 468.157 271.81 468.494 273.546 468.128C275.283 467.762 276.811 466.723 277.808 465.23L290.966 442.685L283.916 468.638C284.443 474.843 291.066 475.328 294.604 470.796L302.883 447.115L301.478 469.06C301.662 470.379 302.277 471.596 303.224 472.517C304.171 473.437 305.394 474.006 306.698 474.133C308.001 474.26 309.308 473.937 310.409 473.215C311.51 472.494 312.341 471.417 312.767 470.158L314.774 450.128L316.029 470.234C316.289 471.405 316.931 472.452 317.85 473.205C318.769 473.958 319.912 474.373 321.091 474.382C322.271 474.391 323.419 473.993 324.349 473.254C325.279 472.515 325.937 471.478 326.214 470.311C326.749 465.57 327.293 460.83 327.845 456.089L336.776 463.647C338.564 465.158 340.72 466.15 343.016 466.518C345.312 466.887 347.663 466.618 349.822 465.74L360.459 461.4C357.089 448.311 353.735 435.192 350.399 422.043Z" fill="#DB9171"/>
<path d="M482.347 400.519C482.18 400.533 482.016 400.478 481.889 400.368C481.761 400.258 481.683 400.101 481.669 399.932C481.656 399.763 481.709 399.595 481.818 399.466C481.926 399.336 482.08 399.256 482.246 399.243L529.16 391.481C529.327 391.454 529.497 391.495 529.633 391.596C529.77 391.696 529.861 391.848 529.888 392.017C529.914 392.186 529.874 392.359 529.775 392.498C529.676 392.637 529.527 392.73 529.361 392.757C480.49 400.838 482.472 400.519 482.347 400.519Z" fill="#68003C"/>
<path d="M336.964 181.506L349.872 178.481C350.147 180.176 349.778 181.914 348.838 183.342C347.898 184.769 346.46 185.779 344.814 186.164C343.169 186.55 341.441 186.283 339.983 185.417C338.524 184.552 337.445 183.153 336.964 181.506Z" fill="#262246"/>
<path d="M212.203 480.766H151.993L160.147 399.064H204.05L212.203 480.766Z" fill="#0942B2"/>
<path d="M257.411 472.251H267.133V478.851H257.411V472.251ZM269.328 472.251H279.049V478.851H269.328V472.251ZM281.245 472.251H290.966V478.851H281.245V472.251ZM293.161 472.251H302.883V478.851H293.161V472.251ZM305.078 472.251H314.799V478.851H305.078V472.251ZM316.994 472.251H326.716V478.851H316.994V472.251ZM328.911 472.251H338.632V478.851H328.911V472.251ZM340.828 472.251H350.549V478.851H340.828V472.251ZM352.744 472.251H362.466V478.851H352.744V472.251ZM364.661 472.251H374.382V478.851H364.661V472.251ZM376.577 472.251H386.299V478.851H376.577V472.251Z" fill="#68003C"/>
<path d="M330.09 447.575H63.5594L48.5069 265.021H317.383L330.09 447.575ZM263.269 483.243H91.3188L99.8863 470.068H254.689L263.269 483.243Z" fill="#0942B2"/>
<path d="M169.555 475.379H392.834V486.945H169.555V475.379Z" fill="#0942B2"/>
<path d="M0 483.319H565.5V498H0V483.319ZM155.305 448.213C155.217 448.213 155.13 448.195 155.049 448.159C154.969 448.123 154.897 448.07 154.838 448.004C154.778 447.938 154.734 447.86 154.706 447.775C154.679 447.69 154.669 447.6 154.678 447.511L159.52 399C159.538 398.843 159.611 398.698 159.727 398.593C159.842 398.487 159.991 398.428 160.147 398.426H204.05C204.205 398.428 204.354 398.487 204.47 398.593C204.585 398.698 204.659 398.843 204.677 399L209.695 444.523C209.713 444.693 209.665 444.862 209.56 444.995C209.455 445.128 209.303 445.213 209.137 445.232C208.97 445.251 208.803 445.201 208.673 445.095C208.542 444.988 208.459 444.833 208.44 444.664L203.486 399.702H160.711L155.932 447.638C155.914 447.795 155.84 447.94 155.725 448.046C155.609 448.151 155.46 448.211 155.305 448.213Z" fill="#68003C"/>
</svg>
