<svg width="34" height="34" viewBox="0 0 34 34" fill="none" xmlns="http://www.w3.org/2000/svg">
<path d="M6 13.3259L9.25 14.7009C9.63889 13.9232 10.0417 13.1732 10.4583 12.4509C10.875 11.7287 11.3333 11.0065 11.8333 10.2843L9.5 9.82594L6 13.3259ZM11.9167 16.7843L16.6667 21.4926C17.8333 21.0482 19.0833 20.3676 20.4167 19.4509C21.75 18.5343 23 17.4926 24.1667 16.3259C26.1111 14.3815 27.6319 12.2218 28.7292 9.84677C29.8264 7.47177 30.3056 5.28427 30.1667 3.28427C28.1667 3.14539 25.9722 3.62455 23.5833 4.72177C21.1944 5.819 19.0278 7.33983 17.0833 9.28427C15.9167 10.4509 14.875 11.7009 13.9583 13.0343C13.0417 14.3676 12.3611 15.6176 11.9167 16.7843ZM19.3333 14.0759C18.6944 13.4371 18.375 12.6523 18.375 11.7218C18.375 10.7912 18.6944 10.0065 19.3333 9.36761C19.9722 8.72872 20.7639 8.40927 21.7083 8.40927C22.6528 8.40927 23.4444 8.72872 24.0833 9.36761C24.7222 10.0065 25.0417 10.7912 25.0417 11.7218C25.0417 12.6523 24.7222 13.4371 24.0833 14.0759C23.4444 14.7148 22.6528 15.0343 21.7083 15.0343C20.7639 15.0343 19.9722 14.7148 19.3333 14.0759ZM20.125 27.4509L23.625 23.9509L23.1667 21.6176C22.4444 22.1176 21.7222 22.569 21 22.9718C20.2778 23.3746 19.5278 23.7704 18.75 24.1593L20.125 27.4509ZM33.1667 0.242608C33.6944 3.60372 33.3681 6.87455 32.1875 10.0551C31.0069 13.2357 28.9722 16.2704 26.0833 19.1593L26.9167 23.2843C27.0278 23.8398 27 24.3815 26.8333 24.9093C26.6667 25.4371 26.3889 25.8954 26 26.2843L19 33.2843L15.5 25.0759L8.375 17.9509L0.166667 14.4509L7.125 7.45094C7.51389 7.06205 7.97917 6.78427 8.52083 6.61761C9.0625 6.45094 9.61111 6.42316 10.1667 6.53427L14.2917 7.36761C17.1806 4.47872 20.2083 2.43705 23.375 1.24261C26.5417 0.0481631 29.8056 -0.28517 33.1667 0.242608ZM3.125 23.2426C4.09722 22.2704 5.28472 21.7773 6.6875 21.7634C8.09028 21.7496 9.27778 22.2287 10.25 23.2009C11.2222 24.1732 11.7014 25.3607 11.6875 26.7634C11.6736 28.1662 11.1806 29.3537 10.2083 30.3259C9.51389 31.0204 8.35417 31.6176 6.72917 32.1176C5.10417 32.6176 2.86111 33.062 0 33.4509C0.388889 30.5898 0.833333 28.3468 1.33333 26.7218C1.83333 25.0968 2.43056 23.9371 3.125 23.2426ZM5.5 25.5759C5.22222 25.8537 4.94444 26.3607 4.66667 27.0968C4.38889 27.8329 4.19444 28.5759 4.08333 29.3259C4.83333 29.2148 5.57639 29.0273 6.3125 28.7634C7.04861 28.4996 7.55556 28.2287 7.83333 27.9509C8.16667 27.6176 8.34722 27.2148 8.375 26.7426C8.40278 26.2704 8.25 25.8676 7.91667 25.5343C7.58333 25.2009 7.18056 25.0412 6.70833 25.0551C6.23611 25.069 5.83333 25.2426 5.5 25.5759Z" fill="#0942B2"/>
</svg>
